{
    "asset" : {
        "generator" : "Khronos glTF Blender I/O v1.8.19",
        "version" : "2.0"
    },
    "extensionsUsed" : [
        "KHR_materials_transmission"
    ],
    "scene" : 0,
    "scenes" : [
        {
            "name" : "Scene",
            "nodes" : [
                0,
                1,
                2
            ]
        }
    ],
    "nodes" : [
        {
            "mesh" : 0,
            "name" : "Plane",
            "rotation" : [
                0.7071068286895752,
                0,
                0,
                0.7071068286895752
            ],
            "scale" : [
                1,
                1,
                0.5955899357795715
            ],
            "translation" : [
                0,
                0.7330909371376038,
                0
            ]
        },
        {
            "mesh" : 1,
            "name" : "Plane.002",
            "rotation" : [
                0.7071068286895752,
                0,
                0,
                0.7071068286895752
            ],
            "scale" : [
                0.48080015182495117,
                0.48080015182495117,
                0.48080015182495117
            ],
            "translation" : [
                0,
                0.8304482102394104,
                -0.22262997925281525
            ]
        },
        {
            "mesh" : 2,
            "name" : "Text",
            "rotation" : [
                0.7071068286895752,
                0,
                0,
                0.7071068286895752
            ],
            "scale" : [
                0.03485947102308273,
                0.03485947102308273,
                0.03485947102308273
            ],
            "translation" : [
                -0.015345039777457714,
                0.14523319900035858,
                -0.30049359798431396
            ]
        }
    ],
    "materials" : [
        {
            "doubleSided" : true,
            "name" : "Material.003",
            "pbrMetallicRoughness" : {
                "baseColorFactor" : [
                    0.09083804488182068,
                    0.09083804488182068,
                    0.09083804488182068,
                    1
                ],
                "metallicFactor" : 0,
                "roughnessFactor" : 0.33636364340782166
            }
        },
        {
            "doubleSided" : true,
            "name" : "Material.009",
            "pbrMetallicRoughness" : {
                "baseColorFactor" : [
                    0.012216584756970406,
                    0.012216584756970406,
                    0.012216584756970406,
                    1
                ],
                "metallicFactor" : 0.4909090995788574,
                "roughnessFactor" : 0.5
            }
        },
        {
            "doubleSided" : true,
            "emissiveFactor" : [
                1,
                1,
                1
            ],
            "name" : "Material.010",
            "pbrMetallicRoughness" : {}
        },
        {
            "alphaMode" : "BLEND",
            "doubleSided" : true,
            "extensions" : {
                "KHR_materials_transmission" : {
                    "transmissionFactor" : 1
                }
            },
            "name" : "GLASS",
            "pbrMetallicRoughness" : {
                "baseColorFactor" : [
                    0.5,
                    0.5,
                    0.5,
                    1
                ],
                "metallicFactor" : 0,
                "roughnessFactor" : 0
            }
        },
        {
            "doubleSided" : true,
            "name" : "Material.011",
            "pbrMetallicRoughness" : {
                "baseColorFactor" : [
                    0.800000011920929,
                    0.800000011920929,
                    0.800000011920929,
                    1
                ],
                "roughnessFactor" : 0
            }
        }
    ],
    "meshes" : [
        {
            "name" : "Plane",
            "primitives" : [
                {
                    "attributes" : {
                        "POSITION" : 0,
                        "NORMAL" : 1,
                        "TEXCOORD_0" : 2
                    },
                    "indices" : 3,
                    "material" : 0
                },
                {
                    "attributes" : {
                        "POSITION" : 4,
                        "NORMAL" : 5,
                        "TEXCOORD_0" : 6
                    },
                    "indices" : 7
                },
                {
                    "attributes" : {
                        "POSITION" : 8,
                        "NORMAL" : 9,
                        "TEXCOORD_0" : 10
                    },
                    "indices" : 11,
                    "material" : 1
                },
                {
                    "attributes" : {
                        "POSITION" : 12,
                        "NORMAL" : 13,
                        "TEXCOORD_0" : 14
                    },
                    "indices" : 15,
                    "material" : 2
                }
            ]
        },
        {
            "name" : "Plane.004",
            "primitives" : [
                {
                    "attributes" : {
                        "POSITION" : 16,
                        "NORMAL" : 17,
                        "TEXCOORD_0" : 18
                    },
                    "indices" : 19,
                    "material" : 3
                }
            ]
        },
        {
            "name" : "Text",
            "primitives" : [
                {
                    "attributes" : {
                        "POSITION" : 20,
                        "NORMAL" : 21,
                        "TEXCOORD_0" : 22
                    },
                    "indices" : 23,
                    "material" : 4
                }
            ]
        }
    ],
    "accessors" : [
        {
            "bufferView" : 0,
            "componentType" : 5126,
            "count" : 1043,
            "max" : [
                1,
                -0.3218688666820526,
                1
            ],
            "min" : [
                -1,
                -0.48997801542282104,
                -1
            ],
            "type" : "VEC3"
        },
        {
            "bufferView" : 1,
            "componentType" : 5126,
            "count" : 1043,
            "type" : "VEC3"
        },
        {
            "bufferView" : 2,
            "componentType" : 5126,
            "count" : 1043,
            "type" : "VEC2"
        },
        {
            "bufferView" : 3,
            "componentType" : 5123,
            "count" : 1464,
            "type" : "SCALAR"
        },
        {
            "bufferView" : 4,
            "componentType" : 5126,
            "count" : 16,
            "max" : [
                1,
                -0.321908563375473,
                1
            ],
            "min" : [
                -1,
                -0.321908563375473,
                -1
            ],
            "type" : "VEC3"
        },
        {
            "bufferView" : 5,
            "componentType" : 5126,
            "count" : 16,
            "type" : "VEC3"
        },
        {
            "bufferView" : 6,
            "componentType" : 5126,
            "count" : 16,
            "type" : "VEC2"
        },
        {
            "bufferView" : 7,
            "componentType" : 5123,
            "count" : 30,
            "type" : "SCALAR"
        },
        {
            "bufferView" : 8,
            "componentType" : 5126,
            "count" : 48,
            "max" : [
                1,
                -0.30080655217170715,
                1
            ],
            "min" : [
                -1,
                -0.321908563375473,
                -1
            ],
            "type" : "VEC3"
        },
        {
            "bufferView" : 9,
            "componentType" : 5126,
            "count" : 48,
            "type" : "VEC3"
        },
        {
            "bufferView" : 10,
            "componentType" : 5126,
            "count" : 48,
            "type" : "VEC2"
        },
        {
            "bufferView" : 11,
            "componentType" : 5123,
            "count" : 96,
            "type" : "SCALAR"
        },
        {
            "bufferView" : 12,
            "componentType" : 5126,
            "count" : 4,
            "max" : [
                0.9865204691886902,
                -0.30800625681877136,
                0.9392744302749634
            ],
            "min" : [
                -0.9865204691886902,
                -0.30800625681877136,
                -0.973882257938385
            ],
            "type" : "VEC3"
        },
        {
            "bufferView" : 13,
            "componentType" : 5126,
            "count" : 4,
            "type" : "VEC3"
        },
        {
            "bufferView" : 14,
            "componentType" : 5126,
            "count" : 4,
            "type" : "VEC2"
        },
        {
            "bufferView" : 15,
            "componentType" : 5123,
            "count" : 6,
            "type" : "SCALAR"
        },
        {
            "bufferView" : 16,
            "componentType" : 5126,
            "count" : 14,
            "max" : [
                2.048013687133789,
                -0.16695654392242432,
                1.380959391593933
            ],
            "min" : [
                -2.0661110877990723,
                -0.1669565588235855,
                -1.0119798183441162
            ],
            "type" : "VEC3"
        },
        {
            "bufferView" : 17,
            "componentType" : 5126,
            "count" : 14,
            "type" : "VEC3"
        },
        {
            "bufferView" : 18,
            "componentType" : 5126,
            "count" : 14,
            "type" : "VEC2"
        },
        {
            "bufferView" : 19,
            "componentType" : 5123,
            "count" : 24,
            "type" : "SCALAR"
        },
        {
            "bufferView" : 20,
            "componentType" : 5126,
            "count" : 790,
            "max" : [
                0.714018702507019,
                0.029999999329447746,
                0.009999999776482582
            ],
            "min" : [
                0.06600000709295273,
                -0.029999999329447746,
                -0.6920000314712524
            ],
            "type" : "VEC3"
        },
        {
            "bufferView" : 21,
            "componentType" : 5126,
            "count" : 790,
            "type" : "VEC3"
        },
        {
            "bufferView" : 22,
            "componentType" : 5126,
            "count" : 790,
            "type" : "VEC2"
        },
        {
            "bufferView" : 23,
            "componentType" : 5123,
            "count" : 3240,
            "type" : "SCALAR"
        }
    ],
    "bufferViews" : [
        {
            "buffer" : 0,
            "byteLength" : 12516,
            "byteOffset" : 0
        },
        {
            "buffer" : 0,
            "byteLength" : 12516,
            "byteOffset" : 12516
        },
        {
            "buffer" : 0,
            "byteLength" : 8344,
            "byteOffset" : 25032
        },
        {
            "buffer" : 0,
            "byteLength" : 2928,
            "byteOffset" : 33376
        },
        {
            "buffer" : 0,
            "byteLength" : 192,
            "byteOffset" : 36304
        },
        {
            "buffer" : 0,
            "byteLength" : 192,
            "byteOffset" : 36496
        },
        {
            "buffer" : 0,
            "byteLength" : 128,
            "byteOffset" : 36688
        },
        {
            "buffer" : 0,
            "byteLength" : 60,
            "byteOffset" : 36816
        },
        {
            "buffer" : 0,
            "byteLength" : 576,
            "byteOffset" : 36876
        },
        {
            "buffer" : 0,
            "byteLength" : 576,
            "byteOffset" : 37452
        },
        {
            "buffer" : 0,
            "byteLength" : 384,
            "byteOffset" : 38028
        },
        {
            "buffer" : 0,
            "byteLength" : 192,
            "byteOffset" : 38412
        },
        {
            "buffer" : 0,
            "byteLength" : 48,
            "byteOffset" : 38604
        },
        {
            "buffer" : 0,
            "byteLength" : 48,
            "byteOffset" : 38652
        },
        {
            "buffer" : 0,
            "byteLength" : 32,
            "byteOffset" : 38700
        },
        {
            "buffer" : 0,
            "byteLength" : 12,
            "byteOffset" : 38732
        },
        {
            "buffer" : 0,
            "byteLength" : 168,
            "byteOffset" : 38744
        },
        {
            "buffer" : 0,
            "byteLength" : 168,
            "byteOffset" : 38912
        },
        {
            "buffer" : 0,
            "byteLength" : 112,
            "byteOffset" : 39080
        },
        {
            "buffer" : 0,
            "byteLength" : 48,
            "byteOffset" : 39192
        },
        {
            "buffer" : 0,
            "byteLength" : 9480,
            "byteOffset" : 39240
        },
        {
            "buffer" : 0,
            "byteLength" : 9480,
            "byteOffset" : 48720
        },
        {
            "buffer" : 0,
            "byteLength" : 6320,
            "byteOffset" : 58200
        },
        {
            "buffer" : 0,
            "byteLength" : 6480,
            "byteOffset" : 64520
        }
    ],
    "buffers" : [
        {
            "byteLength" : 71000,
            "uri" : "data:application/octet-stream;base64,"
        }
    ]
}
